<?xml version="1.0" encoding="utf-8"?>
<!-- Svg Vector Icons : http://www.onlinewebfonts.com/icon -->
<!DOCTYPE svg PUBLIC "-//W3C//DTD SVG 1.1//EN" "http://www.w3.org/Graphics/SVG/1.1/DTD/svg11.dtd">
<svg version="1.1" xmlns="http://www.w3.org/2000/svg" xmlns:xlink="http://www.w3.org/1999/xlink" x="0px" y="0px" viewBox="0 0 1000 1000" enable-background="new 0 0 1000 1000" xml:space="preserve">
<metadata> Svg Vector Icons : http://www.onlinewebfonts.com/icon </metadata>
<g><path d="M488.1,397.9h23.9c15.9,0,28.9,12.8,28.9,28.9v309.8c0,15.9-12.8,28.9-28.9,28.9h-23.9c-15.9,0-28.9-12.8-28.9-28.9V426.9C459.2,411,472.2,397.9,488.1,397.9z"/><path d="M496.2,254.7h7.9c26,0,47.1,21.1,47.1,47.1v8c0,26-21.1,47.1-47.1,47.1h-7.9c-26,0-47.1-21.1-47.1-47.1v-8C449.1,276,470.1,254.7,496.2,254.7z"/><path d="M500,9.8c270.6,0,490,219.4,490,490.2S770.6,990.2,500,990.2C229.4,990.2,10,770.8,10,500S229.4,9.8,500,9.8z M75.1,500c0,234.8,190.1,424.9,424.7,424.9S924.5,734.6,924.5,500c0-234.8-190.1-424.9-424.7-424.9C265.4,75.1,75.1,265.4,75.1,500z"/><path d="M500,152.8c191.7,0,347.2,155.5,347.2,347.2S691.7,847.2,500,847.2S152.8,691.7,152.8,500C152.8,308.1,308.3,152.8,500,152.8z M183.9,500c0,174.8,141.7,316.7,316.3,316.7S816.5,675,816.5,500c0-174.8-141.7-316.7-316.3-316.7C325.4,183.3,183.9,325.2,183.9,500z"/></g>
</svg>