<?xml version="1.0" encoding="utf-8"?>
<!-- Svg Vector Icons : http://www.onlinewebfonts.com/icon -->
<!DOCTYPE svg PUBLIC "-//W3C//DTD SVG 1.1//EN" "http://www.w3.org/Graphics/SVG/1.1/DTD/svg11.dtd">
<svg version="1.1" xmlns="http://www.w3.org/2000/svg" xmlns:xlink="http://www.w3.org/1999/xlink" x="0px" y="0px" viewBox="0 0 1000 1000" enable-background="new 0 0 1000 1000" xml:space="preserve">
<metadata> Svg Vector Icons : http://www.onlinewebfonts.com/icon </metadata>
<g><g transform="translate(0.000000,511.000000) scale(0.100000,-0.100000)"><path d="M4095.7,4987c-96.7-36.5-105.3-88.1-105.3-674.8v-543.7l-144-47.3c-189.1-60.2-483.5-182.7-614.6-253.6l-101-53.7l-406.2,399.7c-335.2,335.2-414.8,401.9-466.3,401.9s-161.2-98.8-711.3-651.1c-552.3-550.1-651.1-659.7-651.1-711.3s66.6-131.1,399.7-466.3l401.8-404l-90.2-182.7c-94.6-193.4-178.4-406.2-229.9-575.9l-32.2-103.1H799.2c-363.2,0-563-8.6-599.6-23.6c-30.1-15-64.5-53.7-77.4-90.2c-30.1-90.3-30.1-1736.4,2.2-1805.1c43-92.4,96.7-101,672.6-101h541.5l70.9-208.5c38.7-116,120.3-311.6,178.4-434.1l105.3-221.4l-397.6-404c-335.2-337.4-399.7-412.6-399.7-464.2c0-53.7,94.6-159,651.1-713.4c548-548,659.7-649,711.3-649s131.1,68.8,464.2,399.7l404,397.6l221.3-105.3c122.5-58,318-139.7,434.1-178.4l208.4-70.9v-541.5c0-575.9,8.6-629.7,101-672.6c73.1-32.2,1744.9-32.2,1818,0c92.4,43,101,96.7,101,672.6v541.5l210.6,70.9c113.9,38.7,309.5,118.2,431.9,178.4l221.4,105.3l404-397.6c335.2-333.1,412.6-399.7,464.2-399.7c51.6,0,161.2,98.8,711.3,651.1c517.9,515.7,651.1,661.9,651.1,704.9s-88.1,144-397.6,453.4c-219.2,219.2-397.6,410.4-397.6,423.3c0,12.9,43,109.6,96.7,214.9c51.6,105.3,131.1,294.4,174.1,419l77.4,227.8h545.8c361,0,560.9,8.6,597.4,23.7c30.1,15,64.5,53.7,77.4,90.2c12.9,40.8,21.5,371.8,21.5,896.1c0,524.3-8.6,855.3-21.5,896.1c-12.9,36.5-47.3,75.2-77.4,90.2c-36.5,15-236.4,23.6-597.4,23.6h-545.8l-79.5,229.9c-43,126.8-122.5,320.2-176.2,431.9l-98.8,199.9l401.8,404c333.1,335.2,399.7,414.8,399.7,466.3s-98.8,161.2-651.1,711.3c-550.2,552.3-659.7,651.1-711.3,651.1c-51.5,0-131.1-66.6-466.3-401.9L6870,3414l-251.4,118.2c-139.7,66.6-333.1,146.1-429.8,178.4l-178.4,58v545.8c0,361-8.6,560.9-23.6,597.4c-15,30.1-53.7,64.5-90.2,77.4C5814.9,5017.1,4175.2,5015,4095.7,4987z M5692.4,4151.1c8.6-631.8-8.6-593.1,285.8-676.9c238.5-68.8,505-180.5,724.2-305.1c92.4-49.4,193.4-92.4,225.6-92.4c45.1,0,133.2,75.2,440.5,380.4l382.5,382.5l487.8-490l489.9-487.8l-382.5-382.5c-296.6-298.7-380.4-395.4-380.4-438.4c0-30.1,43-131.1,94.6-223.5c116.1-208.4,229.9-481.4,300.8-719.9c28-98.8,58-197.7,66.6-217c28-68.8,135.4-81.7,646.8-81.7h502.9V111.1v-685.5l-537.2-6.5c-631.8-8.6-593.1,8.6-676.9-283.6c-73.1-253.6-184.8-522.2-303-726.4c-51.6-90.2-94.6-191.3-94.6-223.5c0-47.3,73.1-133.2,380.4-442.7l382.5-382.5L8241-3127.4l-487.8-487.8l-384.6,380.4C7072-2942.6,6971-2854.5,6928-2854.5c-30.1,0-122.5-38.7-204.2-86c-193.4-111.7-502.9-240.7-745.7-311.6c-294.4-83.8-277.2-45.1-285.8-676.9l-6.5-537.2h-685.5h-685.5l-6.5,537.2c-8.6,631.8,8.6,593.1-283.7,676.9c-253.6,73.1-522.2,184.8-726.4,303c-90.2,51.6-191.3,94.6-223.5,94.6c-47.3,0-133.2-73-442.7-380.4l-382.5-382.5l-487.8,487.8l-487.8,487.8l380.4,384.7c290.1,294.4,380.4,397.5,380.4,438.4c0,30.1-43,131.1-96.7,223.5c-109.6,191.3-242.8,522.2-309.4,760.7c-73.1,257.9-40.8,245-668.3,253.6l-537.2,6.5v685.5v685.5l537.2,6.5c502.9,6.4,539.4,8.6,578.1,49.4c21.5,23.6,70.9,141.8,107.4,264.3c81.7,266.5,206.3,558.7,311.6,732.8c43,68.8,77.4,152.6,77.4,184.8c0,47.3-73.1,133.2-380.4,444.8l-380.4,384.7l487.8,487.8l487.8,487.8l382.5-382.5c296.6-294.4,395.4-380.4,438.4-380.4c30.1,0,131.1,43,223.5,96.7c191.3,109.6,522.2,242.8,760.7,309.4c257.9,73.1,245,40.8,253.6,668.3l6.5,537.2h685.5h685.5L5692.4,4151.1z"/><path d="M4660.9,2603.8c-883.2-124.6-1646.1-717.7-1981.3-1536.5C2537.7,723.5,2499,515.1,2499,111.1c0-311.6,6.4-382.5,55.9-580.2c300.8-1192.7,1353.8-1985.6,2563.7-1925.4c921.9,43,1714.9,565.2,2133.9,1399c352.4,707,343.8,1534.4-21.5,2252.1c-174.1,339.5-382.5,593.1-672.6,818.8c-451.3,352.4-915.4,522.2-1472,539.4C4927.3,2618.9,4736.1,2614.6,4660.9,2603.8z M5258.3,2303C6549.8,2144,7424.4,925.5,7158-346.7C7044-892.5,6689.5-1412.5,6221-1724.1c-171.9-113.9-455.6-247.1-601.7-281.5l-60.2-15v320.2c0,447,43,591,283.7,945.5c131.1,197.7,245,423.3,272.9,545.8c32.2,141.8,28,393.3-10.7,543.7c-195.5,760.7-1080.9,1102.4-1736.3,668.3c-337.4-223.5-522.2-597.4-502.9-1020.8c12.9-251.4,58-371.8,275.1-709.2c266.5-414.7,300.8-524.3,300.8-975.6v-318.1l-58,15c-144,34.4-425.5,165.5-599.6,279.4c-676.9,440.5-1065.9,1252.8-979.9,2047.9c34.4,307.3,90.3,507.2,219.2,767.2C3436,1926.9,4336.4,2414.7,5258.3,2303z M5348.6,815.9c266.5-122.5,459.9-408.3,483.5-711.3c17.2-219.2-23.7-339.5-219.2-649c-180.5-285.8-277.2-513.6-315.9-741.4c-25.8-144-27.9-150.4-86-150.4h-60.2v457.7c0,526.5-6.4,552.3-150.4,552.3c-144,0-150.4-25.8-150.4-552.3v-457.7h-60.2c-58,0-62.3,6.4-86,156.9c-36.5,217.1-141.8,457.7-322.3,745.7c-189.1,296.6-229.9,421.2-212.8,638.2c25.8,343.8,240.7,627.5,558.7,741.4C4895.1,906.2,5185.2,891.1,5348.6,815.9z M5236.8-1887.5v-150.4h-236.4H4764v150.4v150.4h236.4h236.4V-1887.5z"/></g></g>
</svg>