<?xml version="1.0" encoding="utf-8"?>
<!-- Svg Vector Icons : http://www.onlinewebfonts.com/icon -->
<!DOCTYPE svg PUBLIC "-//W3C//DTD SVG 1.1//EN" "http://www.w3.org/Graphics/SVG/1.1/DTD/svg11.dtd">
<svg version="1.1" xmlns="http://www.w3.org/2000/svg" xmlns:xlink="http://www.w3.org/1999/xlink" x="0px" y="0px" viewBox="0 0 1000 1000" enable-background="new 0 0 1000 1000" xml:space="preserve">
<metadata> Svg Vector Icons : http://www.onlinewebfonts.com/icon </metadata>
<g><g transform="translate(0.000000,512.000000) scale(0.100000,-0.100000)"><path d="M809.7,5003.2c-353.6-51.1-644.4-353.6-695.5-721c-11.8-80.5-15.7-1489.2-13.8-3552l5.9-3418.4l43.2-108c102.2-247.5,275-418.5,508.8-502.9l127.7-47.2h1540.3h1542.2v412.6v412.6H2395.2H921.7v844.8v844.8h1473.5h1473.5v412.6V-6.6H2395.2H921.7v844.8V1683h3359.5h3359.5v-216.1v-216.1h412.6h412.6v1530.4c0,1479.4-2,1534.4-39.3,1658.1c-90.4,294.7-349.7,510.8-668,561.9C7609.3,5026.8,974.7,5026.8,809.7,5003.2z M7640.7,3352.9v-844.8H4281.2H921.7v844.8v844.8h3359.5h3359.5V3352.9z"/><path d="M1353.9,3352.9v-412.6h1041.2h1041.3v412.6v412.6H2395.2H1353.9V3352.9z"/><path d="M5422.6,3736c-302.6-94.3-383.1-499-141.5-703.3c259.3-216.1,669.9-29.5,669.9,304.5C5951.1,3622.1,5687.9,3820.5,5422.6,3736z"/><path d="M6691.8,3738c-310.4-84.5-398.8-497.1-153.2-705.3c259.3-216.1,669.9-29.5,669.9,304.5C7208.5,3620.1,6962.9,3810.7,6691.8,3738z"/><path d="M1353.9,838.2V425.6h1041.2h1041.3v412.6v412.6H2395.2H1353.9V838.2z"/><path d="M6513,386.3c-459.7-72.7-860.5-275-1182.7-597.2c-1123.8-1125.7-628.7-3033.4,901.7-3477.4c499-145.4,1011.8-94.3,1497,145.4l235.8,115.9l677.8-675.8l677.8-677.8l290.8,288.8l288.8,290.8l-677.8,677.8l-675.8,677.8l115.9,235.8c129.7,261.3,186.6,455.8,214.2,734.8C8980.6-869.1,8302.8,87.7,7310.6,339.2C7094.5,394.2,6709.5,415.8,6513,386.3z M7098.5-458.5c249.5-62.9,392.9-145.4,583.5-334c141.5-137.5,182.7-196.5,249.5-334c102.2-218.1,131.6-341.8,129.7-569.7c0-343.8-117.9-620.8-371.3-874.3c-304.5-304.5-695.5-430.3-1106.1-355.6c-579.6,104.1-1005.9,583.5-1039.3,1170.9C5497.3-906.4,6285.1-250.2,7098.5-458.5z"/><path d="M1353.9-1676.5v-412.6h1041.2h1041.3v412.6v412.6H2395.2H1353.9V-1676.5z"/></g></g>
</svg>