<?xml version="1.0" encoding="utf-8"?>
<!-- Svg Vector Icons : http://www.onlinewebfonts.com/icon -->
<!DOCTYPE svg PUBLIC "-//W3C//DTD SVG 1.1//EN" "http://www.w3.org/Graphics/SVG/1.1/DTD/svg11.dtd">
<svg version="1.1" xmlns="http://www.w3.org/2000/svg" xmlns:xlink="http://www.w3.org/1999/xlink" x="0px" y="0px" viewBox="0 0 1000 1000" enable-background="new 0 0 1000 1000" xml:space="preserve">
<metadata> Svg Vector Icons : http://www.onlinewebfonts.com/icon </metadata>
<g><path d="M329,854.6c-122.5-64.5-199.9-187-199.9-328.8c0-206.3,167.6-373.9,373.9-373.9c19.3,0,32.2,0,51.6,6.4l38.7-45.1c-32.2-12.9-58-19.3-90.3-19.3C271,93.8,77.6,287.2,77.6,519.3c0,167.6,96.7,309.5,238.6,380.4L329,854.6z"/><path d="M677.2,132.5l-19.3,51.6c128.9,58,212.8,187,212.8,335.3c0,206.3-167.6,373.9-373.9,373.9c-25.8,0-45.1,0-70.9-6.4L387,932c32.2,6.4,70.9,12.9,109.6,12.9c232.1,0,425.5-193.4,425.5-425.5C928.6,351.7,825.4,203.4,677.2,132.5z"/><path d="M696.5,10L528.9,442l219.2,6.4L316.1,990l128.9-406.2H251.6L696.5,10z"/></g>
</svg>